<svg width="38" height="38" viewBox="0 0 38 38" fill="none" xmlns="http://www.w3.org/2000/svg">
<path d="M30.0833 4.75H7.91667C6.16776 4.75 4.75 6.16776 4.75 7.91667V30.0833C4.75 31.8322 6.16776 33.25 7.91667 33.25H30.0833C31.8322 33.25 33.25 31.8322 33.25 30.0833V7.91667C33.25 6.16776 31.8322 4.75 30.0833 4.75Z" stroke="#928FB0" stroke-width="2" stroke-linecap="round" stroke-linejoin="round"/>
<path d="M33.25 23.75L25.3333 15.8334L7.91666 33.25" stroke="#928FB0" stroke-width="2" stroke-linecap="round" stroke-linejoin="round"/>
<path d="M13.4583 15.8334C14.77 15.8334 15.8333 14.7701 15.8333 13.4584C15.8333 12.1467 14.77 11.0834 13.4583 11.0834C12.1467 11.0834 11.0833 12.1467 11.0833 13.4584C11.0833 14.7701 12.1467 15.8334 13.4583 15.8334Z" stroke="#928FB0" stroke-width="2" stroke-linecap="round" stroke-linejoin="round"/>
</svg>
